<svg width="48" height="56" viewBox="0 0 48 56" fill="none" xmlns="http://www.w3.org/2000/svg">
<path fill-rule="evenodd" clip-rule="evenodd" d="M20.144 7.33252L9.41437 16.5038C8.91472 16.8359 8.58539 17.4039 8.58539 18.0488C8.58539 19.0725 9.4153 19.9024 10.439 19.9024C10.9649 19.9024 11.4396 19.6834 11.777 19.3317L24.124 8.77796L36.4714 19.3323C36.8087 19.6837 37.2832 19.9024 37.8088 19.9024C38.8326 19.9024 39.6624 19.0725 39.6624 18.0488C39.6624 17.4037 39.3329 16.8355 38.833 16.5035L28.1646 7.38444C29.0452 7.53851 29.9093 7.74057 30.754 7.98784C31.3415 7.0572 32.3791 6.43905 33.561 6.43905C35.393 6.43905 36.8781 7.92415 36.8781 9.75612C36.8781 10.0786 36.8321 10.3903 36.7462 10.6851C43.5063 14.9305 48 22.4527 48 31.0244C48 44.2792 37.2548 55.0244 24 55.0244C19.0882 55.0244 14.5209 53.5488 10.7175 51.0168C12.7031 48.9838 16.2667 45.6009 18.2439 44.6829C20.2228 43.7641 23.3793 43.5109 25.6364 43.3299C26.495 43.261 27.2234 43.2026 27.7073 43.1219C28.7159 42.9538 30.4646 43.0432 31.8261 43.1128C32.8352 43.1643 33.6315 43.205 33.7561 43.1219C34.0488 42.9268 36.7805 40.5854 37.2683 40.0976C37.7561 39.6097 37.561 38.8293 37.2683 38.439C37.0342 38.1268 36.6504 37.8537 36.4878 37.7561L39.122 35.3171C39.7398 34.8293 40.9756 33.6 40.9756 32.5854C40.9756 31.3171 40.0976 30.6341 39.122 30.3415C38.1463 30.0488 36.3903 30.1463 35.6098 30.3415C35.3282 30.4118 33.9674 31.6123 32.2602 33.1182L32.2602 33.1183C29.2351 35.7868 25.1226 39.4146 24 39.4146C22.2439 39.4146 17.8916 40.1909 14.9268 41.9512C11.9749 43.7039 9.34287 46.2125 7.27802 48.24C2.78902 43.8789 0 37.7774 0 31.0244C0 22.1813 4.78266 14.4553 11.9024 10.2919V6.8293V6.82928C11.9024 5.21284 13.2128 3.90247 14.8293 3.90247C16.4457 3.90247 17.7561 5.21285 17.7561 6.8293V7.84466C18.5371 7.63481 19.3337 7.46339 20.144 7.33252ZM24.4878 34.5366C28.3134 34.5366 31.4146 31.4353 31.4146 27.6097C31.4146 23.7842 28.3134 20.6829 24.4878 20.6829C20.6622 20.6829 17.561 23.7842 17.561 27.6097C17.561 31.4353 20.6622 34.5366 24.4878 34.5366Z" fill="url(#paint0_linear_27_312)"/>
<path fill-rule="evenodd" clip-rule="evenodd" d="M17.3658 6.43904H17.3687C17.3845 5.90297 17.4652 5.36943 17.6102 4.85026C17.8548 3.97411 18.277 3.15763 18.8505 2.45155C19.424 1.74547 20.1365 1.16487 20.9439 0.745829C21.7513 0.326793 22.6362 0.0782716 23.5437 0.0157095C24.4512 -0.0468527 25.3619 0.0778807 26.2191 0.382159C27.0764 0.686437 27.8619 1.16376 28.5269 1.78446C29.1918 2.40517 29.722 3.15599 30.0846 3.99028C30.4211 4.76487 30.6065 5.59604 30.6313 6.43904H30.6341V6.62619L30.6341 6.63415L30.6341 9.52847L24 4.00001L17.3658 9.68642V6.43904Z" fill="#D78E30"/>
<defs>
<linearGradient id="paint0_linear_27_312" x1="48" y1="29.4634" x2="-6.54434e-07" y2="29.4634" gradientUnits="userSpaceOnUse">
<stop stop-color="#00DFB5"/>
<stop offset="1" stop-color="#415ABE"/>
</linearGradient>
</defs>
</svg>
